<?xml version="1.0" encoding="UTF-8" standalone="no"?>
<!DOCTYPE svg PUBLIC "-//W3C//DTD SVG 1.1//EN"
 "http://www.w3.org/Graphics/SVG/1.1/DTD/svg11.dtd">
<!-- Generated by graphviz version 2.34.0 (20140114.1509)
 -->
<!-- Title: controllers_diagram Pages: 1 -->
<svg width="411pt" height="607pt"
 viewBox="0.00 0.00 410.90 606.61" xmlns="http://www.w3.org/2000/svg" xmlns:xlink="http://www.w3.org/1999/xlink">
<g id="graph0" class="graph" transform="scale(1 1) rotate(0) translate(4 602.607)">
<title>controllers_diagram</title>
<polygon fill="white" stroke="white" points="-4,4 -4,-602.607 406.899,-602.607 406.899,4 -4,4"/>
<!-- _diagram_info -->
<g id="node1" class="node"><title>_diagram_info</title>
<text text-anchor="start" x="204" y="-265" font-family="Times,serif" font-size="13.00">Controllers diagram</text>
<text text-anchor="start" x="204" y="-249.4" font-family="Times,serif" font-size="13.00">Date: Jan 14 2014 &#45; 16:00</text>
<text text-anchor="start" x="204" y="-233.8" font-family="Times,serif" font-size="13.00">Migration version: 20140114124656</text>
<text text-anchor="start" x="204" y="-218.2" font-family="Times,serif" font-size="13.00">Generated by RailRoady 1.1.1</text>
<text text-anchor="start" x="204" y="-202.6" font-family="Times,serif" font-size="13.00">http://railroady.prestonlee.com</text>
</g>
<!-- ApplicationController -->
<g id="node2" class="node"><title>ApplicationController</title>
<path fill="none" stroke="black" d="M12,-247.076C12,-247.076 127.642,-247.076 127.642,-247.076 133.642,-247.076 139.642,-253.076 139.642,-259.076 139.642,-259.076 139.642,-332.676 139.642,-332.676 139.642,-338.676 133.642,-344.676 127.642,-344.676 127.642,-344.676 12,-344.676 12,-344.676 6,-344.676 1.42109e-14,-338.676 1.42109e-14,-332.676 1.42109e-14,-332.676 1.42109e-14,-259.076 1.42109e-14,-259.076 1.42109e-14,-253.076 6,-247.076 12,-247.076"/>
<text text-anchor="middle" x="69.8208" y="-326.676" font-family="Times,serif" font-size="14.00">ApplicationController</text>
<polyline fill="none" stroke="black" points="1.42109e-14,-319.876 139.642,-319.876 "/>
<polyline fill="none" stroke="black" points="1.42109e-14,-295.876 139.642,-295.876 "/>
<polyline fill="none" stroke="black" points="1.42109e-14,-271.876 139.642,-271.876 "/>
<text text-anchor="start" x="8" y="-253.876" font-family="Times,serif" font-size="14.00">_layout</text>
</g>
<!-- RestaurantsController -->
<g id="node3" class="node"><title>RestaurantsController</title>
<path fill="none" stroke="black" d="M28.5004,-365.307C28.5004,-365.307 143.363,-365.307 143.363,-365.307 149.363,-365.307 155.363,-371.307 155.363,-377.307 155.363,-377.307 155.363,-586.107 155.363,-586.107 155.363,-592.107 149.363,-598.107 143.363,-598.107 143.363,-598.107 28.5004,-598.107 28.5004,-598.107 22.5004,-598.107 16.5004,-592.107 16.5004,-586.107 16.5004,-586.107 16.5004,-377.307 16.5004,-377.307 16.5004,-371.307 22.5004,-365.307 28.5004,-365.307"/>
<text text-anchor="middle" x="85.9315" y="-580.107" font-family="Times,serif" font-size="14.00">RestaurantsController</text>
<polyline fill="none" stroke="black" points="16.5004,-573.307 155.363,-573.307 "/>
<text text-anchor="start" x="24.5004" y="-555.307" font-family="Times,serif" font-size="14.00">create</text>
<text text-anchor="start" x="24.5004" y="-538.507" font-family="Times,serif" font-size="14.00">destroy</text>
<text text-anchor="start" x="24.5004" y="-521.707" font-family="Times,serif" font-size="14.00">edit</text>
<text text-anchor="start" x="24.5004" y="-504.907" font-family="Times,serif" font-size="14.00">index</text>
<text text-anchor="start" x="24.5004" y="-488.107" font-family="Times,serif" font-size="14.00">new</text>
<text text-anchor="start" x="24.5004" y="-471.307" font-family="Times,serif" font-size="14.00">show</text>
<text text-anchor="start" x="24.5004" y="-454.507" font-family="Times,serif" font-size="14.00">update</text>
<polyline fill="none" stroke="black" points="16.5004,-447.707 155.363,-447.707 "/>
<polyline fill="none" stroke="black" points="16.5004,-423.707 155.363,-423.707 "/>
<text text-anchor="start" x="24.5004" y="-405.707" font-family="Times,serif" font-size="14.00">_layout</text>
<text text-anchor="start" x="24.5004" y="-388.907" font-family="Times,serif" font-size="14.00">restaurant_params</text>
<text text-anchor="start" x="24.5004" y="-372.107" font-family="Times,serif" font-size="14.00">set_restaurant</text>
</g>
<!-- ApplicationController&#45;&gt;RestaurantsController -->
<g id="edge1" class="edge"><title>ApplicationController&#45;&gt;RestaurantsController</title>
<path fill="none" stroke="black" d="M74.0537,-344.701C74.4732,-349.54 74.9108,-354.587 75.3599,-359.768"/>
<polyline fill="none" stroke="black" points="75.8127,-364.99 75.3807,-360.009 "/>
</g>
<!-- ReviewsController -->
<g id="node4" class="node"><title>ReviewsController</title>
<path fill="none" stroke="black" d="M36.8118,-0.5C36.8118,-0.5 134.571,-0.5 134.571,-0.5 140.571,-0.5 146.571,-6.5 146.571,-12.5 146.571,-12.5 146.571,-204.5 146.571,-204.5 146.571,-210.5 140.571,-216.5 134.571,-216.5 134.571,-216.5 36.8118,-216.5 36.8118,-216.5 30.8118,-216.5 24.8118,-210.5 24.8118,-204.5 24.8118,-204.5 24.8118,-12.5 24.8118,-12.5 24.8118,-6.5 30.8118,-0.5 36.8118,-0.5"/>
<text text-anchor="middle" x="85.6912" y="-198.5" font-family="Times,serif" font-size="14.00">ReviewsController</text>
<polyline fill="none" stroke="black" points="24.8118,-191.7 146.571,-191.7 "/>
<text text-anchor="start" x="32.8118" y="-173.7" font-family="Times,serif" font-size="14.00">create</text>
<text text-anchor="start" x="32.8118" y="-156.9" font-family="Times,serif" font-size="14.00">edit</text>
<text text-anchor="start" x="32.8118" y="-140.1" font-family="Times,serif" font-size="14.00">index</text>
<text text-anchor="start" x="32.8118" y="-123.3" font-family="Times,serif" font-size="14.00">new</text>
<text text-anchor="start" x="32.8118" y="-106.5" font-family="Times,serif" font-size="14.00">show</text>
<text text-anchor="start" x="32.8118" y="-89.7" font-family="Times,serif" font-size="14.00">update</text>
<polyline fill="none" stroke="black" points="24.8118,-82.9 146.571,-82.9 "/>
<polyline fill="none" stroke="black" points="24.8118,-58.9 146.571,-58.9 "/>
<text text-anchor="start" x="32.8118" y="-40.9" font-family="Times,serif" font-size="14.00">_layout</text>
<text text-anchor="start" x="32.8118" y="-24.1" font-family="Times,serif" font-size="14.00">review_params</text>
<text text-anchor="start" x="32.8118" y="-7.3" font-family="Times,serif" font-size="14.00">set_review</text>
</g>
<!-- ApplicationController&#45;&gt;ReviewsController -->
<g id="edge2" class="edge"><title>ApplicationController&#45;&gt;ReviewsController</title>
<path fill="none" stroke="black" d="M73.9906,-246.645C74.6522,-238.833 75.3594,-230.484 76.0861,-221.904"/>
<polyline fill="none" stroke="black" points="76.5409,-216.535 76.1188,-221.517 "/>
</g>
</g>
</svg>
