<?xml version="1.0" encoding="UTF-8" standalone="no"?>
<!DOCTYPE svg PUBLIC "-//W3C//DTD SVG 1.1//EN"
 "http://www.w3.org/Graphics/SVG/1.1/DTD/svg11.dtd">
<!-- Generated by graphviz version 2.34.0 (20140114.1509)
 -->
<!-- Title: models_diagram Pages: 1 -->
<svg width="409pt" height="420pt"
 viewBox="0.00 0.00 409.00 420.00" xmlns="http://www.w3.org/2000/svg" xmlns:xlink="http://www.w3.org/1999/xlink">
<g id="graph0" class="graph" transform="scale(1 1) rotate(0) translate(4 416)">
<title>models_diagram</title>
<polygon fill="white" stroke="white" points="-4,4 -4,-416 405,-416 405,4 -4,4"/>
<!-- _diagram_info -->
<g id="node1" class="node"><title>_diagram_info</title>
<text text-anchor="start" x="7.55029" y="-395" font-family="Times,serif" font-size="13.00">Models diagram</text>
<text text-anchor="start" x="7.55029" y="-379.4" font-family="Times,serif" font-size="13.00">Date: Jan 14 2014 &#45; 16:00</text>
<text text-anchor="start" x="7.55029" y="-363.8" font-family="Times,serif" font-size="13.00">Migration version: 20140114124656</text>
<text text-anchor="start" x="7.55029" y="-348.2" font-family="Times,serif" font-size="13.00">Generated by RailRoady 1.1.1</text>
<text text-anchor="start" x="7.55029" y="-332.6" font-family="Times,serif" font-size="13.00">http://railroady.prestonlee.com</text>
</g>
<!-- Restaurant -->
<g id="node2" class="node"><title>Restaurant</title>
<path fill="none" stroke="black" d="M210.495,-155.2C210.495,-155.2 319.505,-155.2 319.505,-155.2 325.505,-155.2 331.505,-161.2 331.505,-167.2 331.505,-167.2 331.505,-276.8 331.505,-276.8 331.505,-282.8 325.505,-288.8 319.505,-288.8 319.505,-288.8 210.495,-288.8 210.495,-288.8 204.495,-288.8 198.495,-282.8 198.495,-276.8 198.495,-276.8 198.495,-167.2 198.495,-167.2 198.495,-161.2 204.495,-155.2 210.495,-155.2"/>
<text text-anchor="middle" x="265" y="-270.8" font-family="Times,serif" font-size="14.00">Restaurant</text>
<polyline fill="none" stroke="black" points="198.495,-264 331.505,-264 "/>
<text text-anchor="start" x="206.495" y="-246" font-family="Times,serif" font-size="14.00">id :integer</text>
<text text-anchor="start" x="206.495" y="-229.2" font-family="Times,serif" font-size="14.00">name :string</text>
<text text-anchor="start" x="206.495" y="-212.4" font-family="Times,serif" font-size="14.00">description :text</text>
<text text-anchor="start" x="206.495" y="-195.6" font-family="Times,serif" font-size="14.00">created_at :datetime</text>
<text text-anchor="start" x="206.495" y="-178.8" font-family="Times,serif" font-size="14.00">updated_at :datetime</text>
<text text-anchor="start" x="206.495" y="-162" font-family="Times,serif" font-size="14.00">promoted :boolean</text>
</g>
<!-- Review -->
<g id="node3" class="node"><title>Review</title>
<path fill="none" stroke="black" d="M256.329,-0.6C256.329,-0.6 367.671,-0.6 367.671,-0.6 373.671,-0.6 379.671,-6.6 379.671,-12.6 379.671,-12.6 379.671,-105.4 379.671,-105.4 379.671,-111.4 373.671,-117.4 367.671,-117.4 367.671,-117.4 256.329,-117.4 256.329,-117.4 250.329,-117.4 244.329,-111.4 244.329,-105.4 244.329,-105.4 244.329,-12.6 244.329,-12.6 244.329,-6.6 250.329,-0.6 256.329,-0.6"/>
<text text-anchor="middle" x="312" y="-99.4" font-family="Times,serif" font-size="14.00">Review</text>
<polyline fill="none" stroke="black" points="244.329,-92.6 379.671,-92.6 "/>
<text text-anchor="start" x="252.329" y="-74.6" font-family="Times,serif" font-size="14.00">id :integer</text>
<text text-anchor="start" x="252.329" y="-57.8" font-family="Times,serif" font-size="14.00">content :text</text>
<text text-anchor="start" x="252.329" y="-41" font-family="Times,serif" font-size="14.00">restaurant_id :integer</text>
<text text-anchor="start" x="252.329" y="-24.2" font-family="Times,serif" font-size="14.00">created_at :datetime</text>
<text text-anchor="start" x="252.329" y="-7.4" font-family="Times,serif" font-size="14.00">updated_at :datetime</text>
</g>
<!-- Restaurant&#45;&gt;Review -->
<g id="edge1" class="edge"><title>Restaurant&#45;&gt;Review</title>
<path fill="none" stroke="#3baaf3" d="M286.562,-147.14C288.461,-140.634 290.377,-134.069 292.261,-127.618"/>
<ellipse fill="none" stroke="#3baaf3" cx="285.373" cy="-151.211" rx="4.00001" ry="4.00001"/>
<polygon fill="#3baaf3" stroke="#3baaf3" points="292.383,-127.197 299.505,-118.859 293.784,-122.398 295.186,-117.598 295.186,-117.598 295.186,-117.598 293.784,-122.398 290.866,-116.337 292.383,-127.197 292.383,-127.197"/>
</g>
<!-- ActiveRecord::Base -->
<g id="node4" class="node"><title>ActiveRecord::Base</title>
<ellipse fill="none" stroke="black" cx="313" cy="-369" rx="88.2033" ry="18"/>
<text text-anchor="middle" x="313" y="-363.4" font-family="Times,serif" font-size="14.00">ActiveRecord::Base</text>
</g>
<!-- ActiveRecord::Base&#45;&gt;Restaurant -->
<g id="edge2" class="edge"><title>ActiveRecord::Base&#45;&gt;Restaurant</title>
<path fill="none" stroke="black" d="M307.305,-350.797C302.549,-336.43 295.432,-314.93 288.386,-293.644"/>
<polyline fill="none" stroke="black" points="286.789,-288.821 288.36,-293.568 "/>
</g>
<!-- ActiveRecord::Base&#45;&gt;Review -->
<g id="edge3" class="edge"><title>ActiveRecord::Base&#45;&gt;Review</title>
<path fill="none" stroke="black" d="M320.829,-350.781C327.43,-335.259 336.364,-311.621 340,-290 350.025,-230.393 348.719,-213.812 340,-154 338.501,-143.719 336.126,-132.999 333.378,-122.633"/>
<polyline fill="none" stroke="black" points="332.001,-117.576 333.315,-122.401 "/>
</g>
</g>
</svg>
