<?xml version="1.0" encoding="UTF-8" standalone="no"?>
<!DOCTYPE svg PUBLIC "-//W3C//DTD SVG 1.1//EN"
 "http://www.w3.org/Graphics/SVG/1.1/DTD/svg11.dtd">
<!-- Generated by graphviz version 2.34.0 (20140114.1509)
 -->
<!-- Title: models_diagram Pages: 1 -->
<svg width="409pt" height="238pt"
 viewBox="0.00 0.00 409.00 238.00" xmlns="http://www.w3.org/2000/svg" xmlns:xlink="http://www.w3.org/1999/xlink">
<g id="graph0" class="graph" transform="scale(1 1) rotate(0) translate(4 234)">
<title>models_diagram</title>
<polygon fill="white" stroke="white" points="-4,4 -4,-234 405,-234 405,4 -4,4"/>
<!-- _diagram_info -->
<g id="node1" class="node"><title>_diagram_info</title>
<text text-anchor="start" x="7.55029" y="-213" font-family="Times,serif" font-size="13.00">Models diagram</text>
<text text-anchor="start" x="7.55029" y="-197.4" font-family="Times,serif" font-size="13.00">Date: Jan 14 2014 &#45; 16:00</text>
<text text-anchor="start" x="7.55029" y="-181.8" font-family="Times,serif" font-size="13.00">Migration version: 20140114124656</text>
<text text-anchor="start" x="7.55029" y="-166.2" font-family="Times,serif" font-size="13.00">Generated by RailRoady 1.1.1</text>
<text text-anchor="start" x="7.55029" y="-150.6" font-family="Times,serif" font-size="13.00">http://railroady.prestonlee.com</text>
</g>
<!-- Restaurant -->
<g id="node2" class="node"><title>Restaurant</title>
<ellipse fill="none" stroke="black" cx="273" cy="-90" rx="52.0008" ry="18"/>
<text text-anchor="middle" x="273" y="-84.4" font-family="Times,serif" font-size="14.00">Restaurant</text>
</g>
<!-- Review -->
<g id="node3" class="node"><title>Review</title>
<ellipse fill="none" stroke="black" cx="313" cy="-18" rx="40.303" ry="18"/>
<text text-anchor="middle" x="313" y="-12.4" font-family="Times,serif" font-size="14.00">Review</text>
</g>
<!-- Restaurant&#45;&gt;Review -->
<g id="edge1" class="edge"><title>Restaurant&#45;&gt;Review</title>
<path fill="none" stroke="#aa0f0d" d="M286.716,-64.9976C290.493,-58.3871 294.603,-51.1939 298.427,-44.502"/>
<ellipse fill="none" stroke="#aa0f0d" cx="284.667" cy="-68.582" rx="4.00002" ry="4.00002"/>
<polygon fill="#aa0f0d" stroke="#aa0f0d" points="298.445,-44.4714 307.313,-38.0216 300.926,-40.1302 303.406,-35.789 303.406,-35.789 303.406,-35.789 300.926,-40.1302 299.499,-33.5564 298.445,-44.4714 298.445,-44.4714"/>
</g>
<!-- ActiveRecord::Base -->
<g id="node4" class="node"><title>ActiveRecord::Base</title>
<ellipse fill="none" stroke="black" cx="313" cy="-187" rx="88.2033" ry="18"/>
<text text-anchor="middle" x="313" y="-181.4" font-family="Times,serif" font-size="14.00">ActiveRecord::Base</text>
</g>
<!-- ActiveRecord::Base&#45;&gt;Restaurant -->
<g id="edge2" class="edge"><title>ActiveRecord::Base&#45;&gt;Restaurant</title>
<path fill="none" stroke="black" d="M305.849,-169.016C299.194,-153.21 289.247,-129.587 282.043,-112.478"/>
<polyline fill="none" stroke="black" points="280.089,-107.837 282.03,-112.445 "/>
</g>
<!-- ActiveRecord::Base&#45;&gt;Review -->
<g id="edge3" class="edge"><title>ActiveRecord::Base&#45;&gt;Review</title>
<path fill="none" stroke="black" d="M320.105,-168.991C328.505,-146.7 340.566,-106.396 334,-72 331.946,-61.2377 327.741,-49.8724 323.63,-40.4381"/>
<polyline fill="none" stroke="black" points="321.501,-35.6941 323.548,-40.2557 "/>
</g>
</g>
</svg>
